<svg xmlns="http://www.w3.org/2000/svg" fill="none" viewBox="0 0 50 50" id="Cloudflare-Icon--Streamline-Svg-Logos" height="50" width="50">
  <desc>
    Cloudflare Icon Streamline Icon: https://streamlinehq.com
  </desc>
  <path fill="#fbad41" d="M39.82510416666667 23.529791666666668c-0.16411458333333334 0 -0.3259895833333334 0.005989583333333334 -0.4878645833333334 0.011197916666666667 -0.026250000000000002 0.0014062500000000002 -0.051979166666666674 0.007500000000000001 -0.07609375000000002 0.017916666666666668 -0.08703125 0.029635416666666668 -0.1532291666666667 0.10114583333333335 -0.17604166666666668 0.19020833333333337l-0.6938020833333334 2.4234375c-0.29911458333333335 1.0419791666666667 -0.18796875000000002 2.00421875 0.3147916666666667 2.710572916666667 0.4610416666666667 0.6534375 1.2279166666666668 1.0368229166666667 2.1589583333333335 1.0815625l3.763541666666667 0.22822916666666668c0.111875 0.005989583333333334 0.2088541666666667 0.0596875 0.2678125 0.1484375 0.06255208333333334 0.09604166666666668 0.07661458333333335 0.21578125 0.03802083333333334 0.32375000000000004 -0.061875000000000006 0.17677083333333332 -0.22145833333333337 0.30104166666666665 -0.40802083333333333 0.31770833333333337l-3.910520833333334 0.22828125000000002c-2.124635416666667 0.09843750000000001 -4.410364583333334 1.8319270833333334 -5.212291666666667 3.94578125l-0.28197916666666667 0.7458854166666666c-0.02463541666666667 0.06276041666666667 -0.01744791666666667 0.1335416666666667 0.019218750000000003 0.19005208333333334 0.03671875 0.05651041666666667 0.09843750000000001 0.09187500000000001 0.16578125000000002 0.09489583333333335h13.468229166666669c0.1609375 0.0006770833333333334 0.30255208333333333 -0.10614583333333334 0.3461458333333333 -0.26104166666666667 0.23921875 -0.8597395833333334 0.35968750000000005 -1.748125 0.358125 -2.64046875 0 -5.385416666666667 -4.318645833333334 -9.750416666666668 -9.648020833333334 -9.750416666666668" stroke-width="0.5208"></path>
  <path fill="#f6821f" d="m33.94671875 35.874479166666674 0.24916666666666668 -0.8764583333333335c0.29989583333333336 -1.0420312500000002 0.18875 -2.00421875 -0.31333333333333335 -2.710572916666667 -0.4625 -0.6534375 -1.2286458333333334 -1.0368229166666667 -2.160416666666667 -1.0815625l-17.654010416666665 -0.22828125000000002c-0.11135416666666667 -0.001979166666666667 -0.21505208333333334 -0.0571875 -0.27901041666666665 -0.14838541666666666 -0.06276041666666667 -0.09593750000000001 -0.07713541666666668 -0.2157291666666667 -0.03875 -0.32375000000000004 0.06239583333333334 -0.1779166666666667 0.22380208333333337 -0.3024479166666667 0.41177083333333336 -0.31776041666666666l17.818854166666668 -0.22822916666666668c2.1156770833333334 -0.09770833333333334 4.40140625 -1.8319270833333334 5.203333333333333 -3.9458333333333333l1.0160416666666667 -2.685208333333333c0.0409375 -0.11385416666666667 0.05171875 -0.2366666666666667 0.02984375 -0.35578125000000005 -1.1577604166666668 -5.237708333333334 -5.78890625 -9.160416666666668 -11.325729166666667 -9.160416666666668 -5.1040625 0 -9.434583333333334 3.328229166666667 -10.988489583333333 7.955052083333334 -1.0461979166666668 -0.7955208333333335 -2.3564583333333333 -1.16203125 -3.66359375 -1.0248958333333333 -2.4468750000000004 0.24614583333333337 -4.416302083333334 2.23921875 -4.659531250000001 4.712604166666667 -0.06296875 0.6177604166666667 -0.0175 1.2417187500000002 0.13432291666666668 1.8438541666666668C3.728619791666667 27.418177083333333 0.5208333333333334 30.728489583333335 0.5208333333333334 34.79661458333334c0 0.36776041666666665 0.026109375 0.7302604166666666 0.079078125 1.0838020833333335 0.021807291666666666 0.17156250000000003 0.16793750000000002 0.3001041666666667 0.3409166666666667 0.29984375H33.54385416666667c0.18859375 -0.003072916666666667 0.3526041666666667 -0.13 0.40286458333333336 -0.3117708333333334" stroke-width="0.5208"></path>
</svg>