<svg id="Layer_1" data-name="Layer 1" xmlns="http://www.w3.org/2000/svg" viewBox="0 0 639.11 715"><defs><style>.cls-1{fill:#a7b1b7;}.cls-2{fill:#fefefe;}.cls-3{fill:#a2a9ad;}.cls-4{fill:#fff;}.cls-5{fill:#c10230;}</style></defs><title>austin_peay_governors_logo</title><path class="cls-1" d="M538.1,331.77c71.37,45.32,156,37.22,156,37.22S607.56,648,374.56,733C141.56,648,55,369,55,369s84.62,8,156-37.29l-4.43-7.3,8-13s.7-1.21,1.71-3.45c-40.35-22.22-42.63-50.22-39.93-65.9,5.45-30.09,29.72-49.7,62.17-50.62.68-7.79,1-15.66,1-23.49,0-32.39-5.61-64.06-16.2-91.62A25.79,25.79,0,0,1,232,46.5C269.68,18.32,370.19,18,374.45,18s104.77.32,142.47,28.5a25.78,25.78,0,0,1,8.64,29.83C515,103.91,509.35,135.58,509.35,168c0,7.37.4,15.16,1.23,23.49,32.7.86,57.18,20.47,62.61,50.45,2.73,15.84.43,43.85-39.9,66.06a37.59,37.59,0,0,0,1.78,3.6l7.64,12.84Z" transform="translate(-54.99 -18)"/><path d="M506.13,333.5a49.49,49.49,0,0,0-4-3.8L519.56,321s-5.15-8.3-8.4-22.47c20.5-8.59,48.92-25.71,44.19-53.36-4.83-26.53-29.66-40-60.67-34.34A294.19,294.19,0,0,1,491.21,168c0-34.58,6-68.51,17.41-98.11A7.61,7.61,0,0,0,506.07,61C478.75,40.58,401.24,36.1,374.45,36.1S270.16,40.58,242.81,61a7.56,7.56,0,0,0-2.54,8.82c11.39,29.6,17.41,63.53,17.41,98.11a292.64,292.64,0,0,1-3.12,42.85c-31-5.64-55.51,7.81-60.31,34.34-4.75,27.65,23.67,44.77,44.18,53.36C235.17,312.68,230,321,230,321l17.44,8.76c-1,.86-2,1.78-2.91,2.69-42.64,26.75-88.32,54.66-163.1,54.66,52,134.28,159.21,278,293.14,326.64C508.5,665.06,615.72,521.37,667.71,387.09c-74.07,0-119.52-27.15-161.56-53.55" transform="translate(-54.99 -18)"/><path class="cls-2" d="M407.77,302.8c-.1.7-.17,1.4-.2,2.1,0,14.86,11.48,26.92,25.67,26.92S459,319.76,459,304.9a27.28,27.28,0,0,0-9.09-20.4,75.55,75.55,0,0,0-19.53,9.67c-9.34,6.19-16.84,8.35-22.56,8.63" transform="translate(-54.99 -18)"/><path class="cls-2" d="M374.45,287.5c-7,0-13,23.66-14.71,32.78a.87.87,0,0,1-.65.68.85.85,0,0,1-.89-.3,55,55,0,0,1-8-15l-11.26-4.4c-1,2-4.39,7.09-12.69,7.09-7.93,0-18.2-4.53-30.53-13.44a.88.88,0,0,1-.3-1,.83.83,0,0,1,.94-.52l15.82,2.52a40,40,0,0,1,0-7.09,31.17,31.17,0,0,0-11.92-2.62,18,18,0,0,0-13.5,5.51c-6.43,6.73-9.33,19.36-8.57,37.57a.88.88,0,0,1-1.19.85c-.48-.2-10.66-4.5-15-19.37-1.38,9.15-2.64,31.79,17.09,38.79a.85.85,0,0,1,.58.81s0,5.55.08,12.3c11.73-.2,24.43-3.05,37.77-8.51,10.63-4.36,20.12-7.07,28.2-8.07a40.35,40.35,0,0,1,9.58-11.5.86.86,0,0,1,1-.09.83.83,0,0,1,.42.89c0,.09-1.27,8.37-1.45,11.62l19.49,5.45,19.4-5.42c-8.34-51.74-16-59.5-19.74-59.5" transform="translate(-54.99 -18)"/><path class="cls-2" d="M355.14,419.16a29.69,29.69,0,0,0-11.81,2.64.86.86,0,0,1-.85-.07.88.88,0,0,1-.37-.75c0-.53.89-12.94,32.68-12.94,28.43,0,29.13-3.16,30.2-7.92v-.06c-1,.07-2.69.16-4.77.16-7.07,0-17.18-1-25.37-5.39-2,1.47-10.31,6.75-24.43,6.75-15.2,0-19.71,4.53-19.75,4.58a1.08,1.08,0,0,1-.64.27.89.89,0,0,1-.63-.27,14.33,14.33,0,0,1-3.07-6.89c-15,1.92-29.88,1.86-42.51-.27,4.28,12.17,12.51,22.8,24.45,31.63,0-3.34.52-10.68,3.67-15a.86.86,0,0,1,.7-.35h.16a.82.82,0,0,1,.67.65c.08.3,6.63,29.06,23.61,44.34,5.76,5.17,12.22,8,18.18,8,11.32,0,18.65-9.78,18.65-24.91,0-21.11-11.77-24.26-18.78-24.26" transform="translate(-54.99 -18)"/><path class="cls-2" d="M401,420.37c-6.5-.84-11.9-.12-15.92,2.14a50.65,50.65,0,0,0,.17,21.75c1.36-4.39,4.61-11.91,11.26-14.23,12.55-4.35,12.7-6.69,12.67-6.94s-.56-1.73-8.18-2.72" transform="translate(-54.99 -18)"/><path class="cls-2" d="M493,301s-.73,14.08-4,20.32-6.48,15.65-3.6,19.56c0,0,20.92-4.3,7.58-39.88" transform="translate(-54.99 -18)"/><path class="cls-2" d="M282.56,277.9s14.49-9.4,41,5.93,35.5,5.88,35.5,5.88-46.41-39.29-76.5-11.81" transform="translate(-54.99 -18)"/><path class="cls-3" d="M420.44,328.22l31.8-31.67a26.4,26.4,0,0,0-3.63-6.17L414.69,323.5a26.23,26.23,0,0,0,5.75,4.75" transform="translate(-54.99 -18)"/><path class="cls-3" d="M454.4,305.71l-26.24,25.58a24.18,24.18,0,0,0,5.09.54c.48,0,.94-.05,1.41-.07L454,312.42a28.81,28.81,0,0,0,.45-4.9c0-.6-.06-1.22-.09-1.81" transform="translate(-54.99 -18)"/><path class="cls-2" d="M467.05,277.9s-14.51-9.4-41,5.93-35.49,5.88-35.49,5.88S437,250.42,467.09,277.9" transform="translate(-54.99 -18)"/><path class="cls-4" d="M307.47,66.64c-16.53,1.8-33.07,7.65-33.07,7.65s18.16,32.33,13.51,109.32c7.68-.75,19.18-1.73,19.56-2.52Z" transform="translate(-54.99 -18)"/><path class="cls-2" d="M353,355.16c-8.59,0-19.82,2.82-33.39,8.39-19.25,7.86-38.1,9.77-55.09,5.61-10-3.66-15.92-11.06-15.92-19.88a20.6,20.6,0,0,1,.18-2.72,19.13,19.13,0,0,0,.41,25.28c4.13,4.89,10.63,9.19,19.34,12.82,9.87,4.12,22.7,6.29,37.13,6.29,34,0,64.94-11.71,64.94-24.59,0-.38-.78-11.2-17.61-11.2" transform="translate(-54.99 -18)"/><path class="cls-2" d="M502.11,346.58a22,22,0,0,1,.18,2.69c0,8.82-5.91,16.24-15.78,19.84a76.81,76.81,0,0,1-18.37,2.2c-11.87,0-24.26-2.62-36.85-7.77-13.57-5.56-24.8-8.37-33.4-8.37-16.83,0-17.59,10.79-17.62,11.27,0,6.15,7.31,12.43,20.07,17.16,12.59,4.68,28.94,7.35,44.88,7.35,14.42,0,27.24-2.18,37.13-6.3,8.71-3.63,15.22-7.93,19.33-12.79a19.16,19.16,0,0,0,.43-25.28" transform="translate(-54.99 -18)"/><path class="cls-1" d="M374.61,268.68a202.86,202.86,0,0,0,100.41-25c46.31-26.21,62.55-7.5,62.87-7.47-.54,0-14.52-34-74.67,1.59-26.78,15.53-59.83,19.7-88.66,19.56-28.79.21-61.85-4-88.66-19.21-60.26-34.86-74.2-1.28-74.7-1.3.31,0,16.52-18.52,62.89,7.19,47.25,25.73,97.21,24.65,100.48,24.64" transform="translate(-54.99 -18)"/><path class="cls-5" d="M451.5,211.5l14.56-13.61c-13.41-1.11-47.11-3.48-91.26-3.48h0c-44.13,0-77.82,2.37-91.24,3.47l14.52,13.62-21.68,5.6a3.12,3.12,0,0,0-.15.43c3.08,1.57,6.3,3.32,9.69,5.31,26.81,15.54,59.88,19.78,88.65,19.58,28.8.14,61.85-4.11,88.62-19.9,3.42-2,6.66-3.85,9.79-5.46Z" transform="translate(-54.99 -18)"/><path class="cls-2" d="M343.61,541.8c-20.24-8.94-47.25-23.71-71.18-46,13.3,28.66,34.95,63.2,86.14,96.8l4.62-21.75a73,73,0,0,1-19.58-29.05" transform="translate(-54.99 -18)"/><path class="cls-2" d="M405.56,541.8c20.22-8.94,47.23-23.71,71.18-46-13.3,28.66-35,63.2-86.15,96.8L386,570.85a73.5,73.5,0,0,0,19.58-29.05" transform="translate(-54.99 -18)"/><path class="cls-2" d="M389.07,491.37l-14.51,24.84L360,491.37s-51.85-17-83.41-61.81l1.26,23.78s2.45,39.16,80.81,73.59a89.24,89.24,0,0,1,31.85-.06c78.23-34.4,80.67-73.53,80.67-73.53l1.26-23.78c-31.56,44.81-83.42,61.81-83.42,61.81" transform="translate(-54.99 -18)"/><path class="cls-5" d="M239.56,388.24c-28.47,17.39-59.49,33.9-100.27,41.46a422,422,0,0,0,32.48,57.86l51,8L210.9,538c27.77,30.91,63.89,62.09,109.88,86,0,0-107-124.53-81.21-235.87" transform="translate(-54.99 -18)"/><path class="cls-5" d="M577.33,487.57a420.46,420.46,0,0,0,32.46-57.88C569,422.14,538,405.64,509.54,388.25c25.82,111.33-81.21,235.86-81.21,235.86,46-24,82.11-55.12,109.87-86l-11.87-42.5Z" transform="translate(-54.99 -18)"/><path class="cls-1" d="M544.84,675.64h-7V670h20.43v5.67h-7v17.63h-6.51ZM562,670h6.89l5.51,9,5.61-9h6.8v23.3h-6.43V679.66l-5.91,9.22h-.22l-5.89-9.22v13.61H562Z" transform="translate(-54.99 -18)"/></svg>