<svg xmlns="http://www.w3.org/2000/svg" style="display:none" aria-hidden="true">
  <defs>
    <style>
      .i{fill:none;stroke:currentColor;stroke-width:1.5;stroke-linecap:round;stroke-linejoin:round}
    </style>
  </defs>

  <!-- SPORTS ICONS -->
  <symbol id="ion-archery" viewBox="0 0 24 24">
    <circle class="i" cx="12" cy="12" r="7"/>
    <path class="i" d="M12 12l7-7M16 5h3v3"/>
  </symbol>

  <symbol id="ion-badminton" viewBox="0 0 24 24">
    <path class="i" d="M6 18l6-6"/>
    <path class="i" d="M5 14l4 4M3 16l4 4M7 12l4 4"/>
    <path class="i" d="M12 12l7-3 1 1-3 7z"/>
  </symbol>

  <symbol id="ion-ballet" viewBox="0 0 24 24">
    <path class="i" d="M8 19c2-1 6-1 8 0"/>
    <path class="i" d="M9 10c1.5 1.5 4.5 1.5 6 0M12 4v3"/>
    <path class="i" d="M7 14c3-1 7-1 10 0"/>
  </symbol>

  <symbol id="ion-baseball" viewBox="0 0 24 24">
    <circle class="i" cx="12" cy="12" r="8"/>
    <path class="i" d="M7 7c2 2 2 8 0 10M17 7c-2 2-2 8 0 10"/>
    <path class="i" d="M8 9l1 1M8 11l1 1M8 13l1 1M8 15l1 1M16 9l-1 1M16 11l-1 1M16 13l-1 1M16 15l-1 1"/>
  </symbol>

  <symbol id="ion-basketball" viewBox="0 0 24 24">
    <circle class="i" cx="12" cy="12" r="8"/>
    <path class="i" d="M4 12h16M12 4v16"/>
    <path class="i" d="M6 6c4 3 8 9 12 12M18 6c-4 3-8 9-12 12"/>
  </symbol>

  <symbol id="ion-beach-volleyball" viewBox="0 0 24 24">
    <circle class="i" cx="10" cy="10" r="6"/>
    <path class="i" d="M6 16c-2 1-3 2-3 3h14"/>
  </symbol>

  <symbol id="ion-bocce" viewBox="0 0 24 24">
    <circle class="i" cx="9" cy="12" r="5"/>
    <circle class="i" cx="17" cy="12" r="2"/>
    <path class="i" d="M7 10l4 4M11 9l-4 4"/>
  </symbol>

  <symbol id="ion-boxing" viewBox="0 0 24 24">
    <path class="i" d="M7 15c0 2 1.5 4 5 4s5-2 5-4-1-4-3-5c-1.5-1-5.5-1-7 0-1 .8-2 2.2-2 3.5"/>
    <path class="i" d="M6 12c-1 .5-2 1.5-2 3"/>
  </symbol>

  <symbol id="ion-cheerleading" viewBox="0 0 24 24">
    <path class="i" d="M5 15l6-3v6l-6-3z"/>
    <path class="i" d="M13 6l6 6M13 10l6 2M13 14l6-2"/>
  </symbol>

  <symbol id="ion-cross-country" viewBox="0 0 24 24">
    <path class="i" d="M6 18l4-6 4 2 4-6"/>
    <path class="i" d="M4 20h16"/>
  </symbol>

  <symbol id="ion-cycling" viewBox="0 0 24 24">
    <circle class="i" cx="7" cy="16" r="3"/>
    <circle class="i" cx="17" cy="16" r="3"/>
    <path class="i" d="M10 16l2-6h4M9 12h3"/>
  </symbol>

  <symbol id="ion-diving" viewBox="0 0 24 24">
    <path class="i" d="M6 9h7"/>
    <path class="i" d="M13 9c-2 1-3 3-3 5"/>
    <path class="i" d="M3 18c4-2 10-2 14 0"/>
  </symbol>

  <symbol id="ion-dragon-boating" viewBox="0 0 24 24">
    <path class="i" d="M3 15c2 2 6 3 9 3s7-1 9-3"/>
    <path class="i" d="M6 14l2 2M9 14l2 2M12 14l2 2M15 14l2 2"/>
    <path class="i" d="M5 12c1-1 2-2 4-2 1 0 2 .5 3 1"/>
    <path class="i" d="M17 10l2-1 1 1-1 2"/>
  </symbol>

  <symbol id="ion-dressage" viewBox="0 0 24 24">
    <path class="i" d="M4 15c3-4 10-6 14-3"/>
    <path class="i" d="M7 15c1 1 3 2 5 2s4-1 5-2"/>
    <circle class="i" cx="16.5" cy="8" r="1.5"/>
  </symbol>

  <symbol id="ion-equestrian" viewBox="0 0 24 24">
    <path class="i" d="M5 14c2-3 7-5 11-3l2 2"/>
    <path class="i" d="M9 16l2 2h2l2-2"/>
    <circle class="i" cx="15.5" cy="8.5" r="1.2"/>
  </symbol>

  <symbol id="ion-fencing" viewBox="0 0 24 24">
    <path class="i" d="M4 12h10"/>
    <path class="i" d="M14 12l5-3M14 12l5 3"/>
    <circle class="i" cx="6" cy="12" r="2.5"/>
  </symbol>

  <symbol id="ion-field-hockey" viewBox="0 0 24 24">
    <path class="i" d="M6 5l9 14"/>
    <path class="i" d="M15 19c1.5 0 2.5-.5 3-2"/>
    <circle class="i" cx="18.5" cy="17.5" r="1"/>
  </symbol>

  <symbol id="ion-football" viewBox="0 0 24 24">
    <path class="i" d="M5 12c0-3 3-6 7-6s7 3 7 6-3 6-7 6-7-3-7-6z"/>
    <path class="i" d="M9 12h6M10 10l4 4M10 14l4-4"/>
  </symbol>

  <symbol id="ion-goalball" viewBox="0 0 24 24">
    <circle class="i" cx="12" cy="12" r="7"/>
    <path class="i" d="M9 9h0M15 9h0M12 14h0"/>
  </symbol>

  <symbol id="ion-golf" viewBox="0 0 24 24">
    <path class="i" d="M9 20v-9l6-3v5"/>
    <circle class="i" cx="16" cy="18" r="2"/>
  </symbol>

  <symbol id="ion-gymnastics" viewBox="0 0 24 24">
    <path class="i" d="M4 8h16"/>
    <path class="i" d="M8 8v8M16 8v8"/>
    <circle class="i" cx="12" cy="6" r="1.5"/>
  </symbol>

  <symbol id="ion-handball" viewBox="0 0 24 24">
    <circle class="i" cx="16" cy="8" r="2"/>
    <path class="i" d="M6 18l4-6 3 2 3-4"/>
  </symbol>

  <symbol id="ion-hockey" viewBox="0 0 24 24">
    <path class="i" d="M6 5l9 14"/>
    <path class="i" d="M17 19h3"/>
    <rect class="i" x="18" y="18.5" width="3" height="1"/>
  </symbol>

  <symbol id="ion-judo" viewBox="0 0 24 24">
    <circle class="i" cx="12" cy="6" r="2"/>
    <path class="i" d="M6 12l6-2 6 2M9 18l3-4 3 4"/>
  </symbol>

  <symbol id="ion-jumping" viewBox="0 0 24 24">
    <path class="i" d="M5 12h14M7 15h10"/>
    <path class="i" d="M9 9l3 2 3-2"/>
  </symbol>

  <symbol id="ion-karate" viewBox="0 0 24 24">
    <circle class="i" cx="12" cy="6" r="2"/>
    <path class="i" d="M5 12h6l-2 6M19 12h-6l2 6"/>
  </symbol>

  <symbol id="ion-lacrosse" viewBox="0 0 24 24">
    <path class="i" d="M6 5l10 14"/>
    <path class="i" d="M14 8c2 0 3 2 1 3-1 .5-2 .5-3-.5"/>
    <circle class="i" cx="18" cy="17" r="1"/>
  </symbol>

  <symbol id="ion-mma" viewBox="0 0 24 24">
    <rect class="i" x="6" y="8" width="12" height="8" rx="2"/>
    <path class="i" d="M8 8v-1a2 2 0 0 1 2-2h4a2 2 0 0 1 2 2v1"/>
  </symbol>

  <symbol id="ion-mountain-biking" viewBox="0 0 24 24">
    <circle class="i" cx="7" cy="16" r="3"/>
    <circle class="i" cx="17" cy="16" r="3"/>
    <path class="i" d="M4 16l3-3 4 1 2-4h3"/>
  </symbol>

  <symbol id="ion-netball" viewBox="0 0 24 24">
    <circle class="i" cx="10" cy="10" r="5"/>
    <path class="i" d="M16 6l3-1v5c-2 2-4 3-6 3"/>
  </symbol>

  <symbol id="ion-pentathlon" viewBox="0 0 24 24">
    <polygon class="i" points="12,4 18,9 15,18 9,18 6,9"/>
    <path class="i" d="M12 7v8"/>
  </symbol>

  <symbol id="ion-rowing" viewBox="0 0 24 24">
    <path class="i" d="M3 16c3 2 6 3 9 3s6-1 9-3"/>
    <path class="i" d="M8 15l3-3M16 15l-3-3"/>
    <path class="i" d="M5 12l3 3M19 12l-3 3"/>
  </symbol>

  <symbol id="ion-rugby" viewBox="0 0 24 24">
    <path class="i" d="M6 12c0-3 3-6 6-6s6 3 6 6-3 6-6 6-6-3-6-6z"/>
    <path class="i" d="M8 12c3 0 5 0 8 0"/>
  </symbol>

  <symbol id="ion-running" viewBox="0 0 24 24">
    <path class="i" d="M6 18l3-5 3 1 2-3"/>
    <circle class="i" cx="14.5" cy="6.5" r="1.5"/>
  </symbol>

  <symbol id="ion-sailing" viewBox="0 0 24 24">
    <path class="i" d="M4 16c3 2 13 2 16 0"/>
    <path class="i" d="M12 6v8M12 6l6 6H12"/>
  </symbol>

  <symbol id="ion-skateboarding" viewBox="0 0 24 24">
    <rect class="i" x="6" y="12" width="12" height="3" rx="1"/>
    <circle class="i" cx="8" cy="17" r="1"/>
    <circle class="i" cx="16" cy="17" r="1"/>
  </symbol>

  <symbol id="ion-skiing" viewBox="0 0 24 24">
    <path class="i" d="M5 19c5 2 9 2 14 0"/>
    <path class="i" d="M7 5l10 14M10 5l10 14"/>
  </symbol>

  <symbol id="ion-soccer" viewBox="0 0 24 24">
    <circle class="i" cx="12" cy="12" r="8"/>
    <polygon class="i" points="12,8 15,10 14,14 10,14 9,10"/>
    <path class="i" d="M12 4v4M4 12h5M20 12h-5M12 20v-4"/>
  </symbol>

  <symbol id="ion-surfing" viewBox="0 0 24 24">
    <path class="i" d="M4 18c2-2 6-3 10-3"/>
    <path class="i" d="M14 15c1 1 2 2 2 3 0 2-2 3-6 3"/>
    <path class="i" d="M12 9c2 0 3 1 3 2 0 2-3 3-6 3"/>
  </symbol>

  <symbol id="ion-swimming" viewBox="0 0 24 24">
    <path class="i" d="M3 17c3-2 6-2 9 0 3-2 6-2 9 0"/>
    <circle class="i" cx="9" cy="8" r="1.5"/>
    <path class="i" d="M6 12l4-2 4 2"/>
  </symbol>

  <symbol id="ion-table-tennis" viewBox="0 0 24 24">
    <path class="i" d="M8 14l4-4c1.5-1.5 4-1.5 5.5 0s1.5 4 0 5.5l-1 1"/>
    <circle class="i" cx="7" cy="15" r="2"/>
    <circle class="i" cx="18" cy="6" r="1.2"/>
  </symbol>

  <symbol id="ion-taekwondo" viewBox="0 0 24 24">
    <circle class="i" cx="12" cy="6" r="2"/>
    <path class="i" d="M6 12h6l4-2M10 18l2-4 4 2"/>
  </symbol>

  <symbol id="ion-tennis" viewBox="0 0 24 24">
    <circle class="i" cx="10" cy="10" r="4.5"/>
    <path class="i" d="M6 8c3 2 5 6 7 10"/>
    <circle class="i" cx="17.5" cy="17.5" r="1.2"/>
  </symbol>

  <symbol id="ion-track-and-field" viewBox="0 0 24 24">
    <path class="i" d="M5 15a7 7 0 0 1 14 0c0 2-2 4-7 4s-7-2-7-4z"/>
    <path class="i" d="M7 15h10"/>
  </symbol>

  <symbol id="ion-triathlon" viewBox="0 0 24 24">
    <circle class="i" cx="7" cy="7" r="2"/>
    <circle class="i" cx="17" cy="17" r="2"/>
    <path class="i" d="M4 17c3-2 6-2 9 0"/>
  </symbol>

  <symbol id="ion-volleyball" viewBox="0 0 24 24">
    <circle class="i" cx="12" cy="12" r="8"/>
    <path class="i" d="M4 12a8 8 0 0 1 8-8M20 12a8 8 0 0 0-8 8M7 7c4 2 6 6 6 10"/>
  </symbol>

  <symbol id="ion-water-polo" viewBox="0 0 24 24">
    <circle class="i" cx="9" cy="9" r="3"/>
    <path class="i" d="M3 18c3-2 6-2 9 0 3-2 6-2 9 0"/>
    <path class="i" d="M13 8l3 2 2-1"/>
  </symbol>

  <symbol id="ion-wakeboarding" viewBox="0 0 24 24">
    <path class="i" d="M4 18c3 2 13 2 16 0"/>
    <rect class="i" x="8" y="14" width="8" height="2" rx="1"/>
    <path class="i" d="M16 13l4-2"/>
  </symbol>

  <symbol id="ion-windsurfing" viewBox="0 0 24 24">
    <path class="i" d="M4 18c3 2 13 2 16 0"/>
    <path class="i" d="M12 6v9M12 6l6 5-6 2"/>
    <path class="i" d="M9 15h6"/>
  </symbol>

  <symbol id="ion-wrestling" viewBox="0 0 24 24">
    <path class="i" d="M7 16l3-3M17 16l-3-3"/>
    <circle class="i" cx="10" cy="8" r="1.5"/>
    <circle class="i" cx="14" cy="8" r="1.5"/>
    <path class="i" d="M8 12c2-1 6-1 8 0"/>
  </symbol>

  <!-- LEAGUE ICONS (subset) -->
  <symbol id="ion-avl" viewBox="0 0 24 24">
    <path class="i" d="M4 20L12 4l8 16"/>
    <path class="i" d="M7 14h10"/>
  </symbol>

  <symbol id="ion-nba" viewBox="0 0 24 24">
    <rect class="i" x="5" y="3" width="14" height="18" rx="2"/>
    <path class="i" d="M12 5v14"/>
    <path class="i" d="M10 7c1 2 1 8 0 10M14 7c-1 2-1 8 0 10"/>
  </symbol>

  <symbol id="ion-nfl" viewBox="0 0 24 24">
    <path class="i" d="M4 6v8a8 8 0 0 0 8 8 8 8 0 0 0 8-8V6l-8-3z"/>
    <path class="i" d="M8 10h8M8 12h8M8 14h8"/>
    <circle class="i" cx="12" cy="8" r="1.2"/>
  </symbol>

  <symbol id="ion-nhl" viewBox="0 0 24 24">
    <path class="i" d="M4 5v14l8 3 8-3V5l-8-3z"/>
    <path class="i" d="M8 8l8 8M8 16l8-8"/>
  </symbol>
  
</svg>


