<svg xmlns="http://www.w3.org/2000/svg" xmlns:xlink="http://www.w3.org/1999/xlink" version="1.1" x="0px" y="0px" viewBox="0 0 256 256" enable-background="new 0 0 256 256" xml:space="preserve">
<metadata> Svg Vector Icons : http://www.onlinewebfonts.com/icon </metadata>
<g> <path fill="#222323" d="M246,218.5c0,15.2-12.3,27.5-27.5,27.5h-181C22.3,246,10,233.7,10,218.5v-181C10,22.3,22.3,10,37.5,10h181 c15.2,0,27.5,12.3,27.5,27.5L246,218.5L246,218.5z"/> <path fill="#cc2a27" d="M242.9,214.6c0,14.8-12,26.8-26.8,26.8H39.9c-14.8,0-26.8-12-26.8-26.8V38.4c0-14.8,12-26.8,26.8-26.8 h176.2c14.8,0,26.8,12,26.8,26.8V214.6L242.9,214.6z"/> <path fill="#ec7272" d="M216.1,13.1H39.9c-14.8,0-26.8,12-26.8,26.8v8.9C13.1,34,25.1,22,39.9,22h176.2c14.8,0,26.8,12,26.8,26.8 v-8.9C242.9,25.1,230.9,13.1,216.1,13.1z"/> <path fill="#a22224" d="M39.9,241.4h176.2c14.8,0,26.8-12,26.8-26.8v-8.9c0,14.8-12,26.8-26.8,26.8H39.9c-14.8,0-26.8-12-26.8-26.8 v8.9C13.1,229.4,25.1,241.4,39.9,241.4z"/> <path fill="#ffffff" d="M51,200.7l59.8-71.3L55.5,63.5h34.7l25.1,32.2c4.7,6.1,8.5,11.2,11.4,15.4c4.1-5.1,8.2-10.2,12.5-15.1 l27.6-32.4h33.1l-56.6,64.6l60.9,72.6h-34.1l-33.6-42.6l-8.9-11.5l-43,54.1H51L51,200.7z"/></g>
</svg>