<?xml version="1.0" encoding="UTF-8" standalone="no"?>
<svg
   xmlns:dc="http://purl.org/dc/elements/1.1/"
   xmlns:cc="http://creativecommons.org/ns#"
   xmlns:rdf="http://www.w3.org/1999/02/22-rdf-syntax-ns#"
   xmlns:svg="http://www.w3.org/2000/svg"
   xmlns="http://www.w3.org/2000/svg"
   xmlns:xlink="http://www.w3.org/1999/xlink"
   xmlns:sodipodi="http://sodipodi.sourceforge.net/DTD/sodipodi-0.dtd"
   xmlns:inkscape="http://www.inkscape.org/namespaces/inkscape"
   width="187.70822"
   height="199.34299"
   viewBox="0 0 187.70822 199.34299"
   version="1.1"
   id="svg75"
   sodipodi:docname="buffalo-st.svg"
   inkscape:version="1.0.1 (3bc2e813f5, 2020-09-07)">
  <metadata
     id="metadata79">
    <rdf:RDF>
      <cc:Work
         rdf:about="">
        <dc:format>image/svg+xml</dc:format>
        <dc:type
           rdf:resource="http://purl.org/dc/dcmitype/StillImage" />
      </cc:Work>
    </rdf:RDF>
  </metadata>
  <sodipodi:namedview
     pagecolor="#ffffff"
     bordercolor="#666666"
     borderopacity="1"
     objecttolerance="10"
     gridtolerance="10"
     guidetolerance="10"
     inkscape:pageopacity="0"
     inkscape:pageshadow="2"
     inkscape:window-width="747"
     inkscape:window-height="480"
     id="namedview77"
     showgrid="false"
     inkscape:zoom="1.2704305"
     inkscape:cx="94.00015"
     inkscape:cy="99.505738"
     inkscape:window-x="0"
     inkscape:window-y="27"
     inkscape:window-maximized="0"
     inkscape:current-layer="svg75" />
  <!-- Generator: Sketch 54.1 (76490) - https://sketchapp.com -->
  <title
     id="title2">buffalo-st</title>
  <desc
     id="desc4">Created with Sketch.</desc>
  <defs
     id="defs8">
    <path
       d="M 135.90595,13.18383 71.897216,10.209255 40.962944,18.897472 1.201696,12.303308 l 12.486208,42.352058 -6.77552,53.603844 3.923936,-0.63452 47.216576,65.99115 4.785728,13.17333 23.907584,7.47769 34.689762,-6.33016 3.78707,-13.54684 c 0,0 35.35904,-56.44041 51.77219,-80.814521 v 0 l 3.18397,0.504013 -16.33494,-53.156829 10.71148,-39.4689867 z"
       id="path-1" />
    <path
       d="M 135.90595,13.18383 71.897216,10.209255 40.962944,18.897472 1.201696,12.303308 l 12.486208,42.352058 -6.77552,53.603844 3.923936,-0.63452 47.216576,65.99115 4.785728,13.17333 23.907584,7.47769 34.689762,-6.33016 3.78707,-13.54684 c 0,0 35.35904,-56.44041 51.77219,-80.814521 v 0 l 3.18397,0.504013 -16.33494,-53.156829 10.71148,-39.4689867 z"
       id="path-3" />
  </defs>
  <g
     id="buffalo-st"
     stroke="none"
     stroke-width="1"
     fill="none"
     fill-rule="evenodd"
     transform="translate(-5.9998496,-0.49426236)">
    <g
       id="buffalo-st_BGD">
      <g
         id="Group-104"
         transform="translate(6)">
        <polygon
           id="Fill-1"
           fill="#231f20"
           points="74.784746,9.8124953 43.599306,18.775219 -0.0001504,11.845046 13.286186,57.669692 5.9271136,113.74259 12.036362,113.01658 58.658858,177.19268 63.05505,191.29903 89.505898,199.83725 127.76315,192.41656 131.67355,177.7927 181.59883,100.11625 187.70807,101.11528 170.61662,43.578339 181.41083,0.49426236 137.25038,13.114078 " />
        <path
           d="m 166.85181,43.533038 16.33494,53.156829 -3.18397,-0.504012 c -16.41165,24.374105 -51.77219,80.814515 -51.77219,80.814515 l -3.78707,13.54684 -34.689763,6.33016 L 65.846173,189.39818 61.060445,176.22486 13.845373,110.23521 9.9199328,110.86972 16.695453,57.265882 4.2092448,14.913823 43.970493,21.506488 74.904765,12.818271 138.9135,15.794345 177.56329,4.0640516 Z"
           id="Fill-2"
           fill="#e0701d" />
        <g
           id="Group-10"
           transform="translate(3.008,2.610065)">
          <g
             id="Group-6">
            <mask
               id="mask-2"
               fill="#ffffff">
              <use
                 xlink:href="#path-1"
                 id="use12"
                 x="0"
                 y="0"
                 width="100%"
                 height="100%" />
            </mask>
            <g
               id="Clip-5" />
            <polygon
               id="Fill-4"
               fill="#fefefe"
               mask="url(#mask-2)"
               points="180.65973,90.256056 182.33819,96.710718 177.3013,96.022201 133.02354,190.86807 118.50091,191.67509 85.69416,199.50529 64.015504,195.60519 9.56168,109.38753 4.4932,108.69902 15.588208,66.048451 14.117296,103.16238 61.136848,145.81295 111.72088,137.26573 121.6172,117.90475 126.92482,110.53356 126.26306,95.60219 129.98546,98.608265 133.00248,103.05138 135.79541,114.16365 142.09717,100.18031 140.4187,93.466137 139.45915,90.944574 132.8235,85.433436 142.94542,89.458037 146.00306,92.914123 146.82424,99.139279 144.8525,113.49614 151.51371,97.168229 151.03544,77.348234 152.5229,74.490662 154.61646,77.822246 156.12949,80.38131 161.24158,99.164779 159.84437,51.367584 164.04805,54.288157 " />
          </g>
          <g
             id="Group-9">
            <mask
               id="mask-4"
               fill="#ffffff">
              <use
                 xlink:href="#path-3"
                 id="use18"
                 x="0"
                 y="0"
                 width="100%"
                 height="100%" />
            </mask>
            <g
               id="Clip-8" />
            <polygon
               id="Fill-7"
               fill="#fefefe"
               mask="url(#mask-4)"
               points="155.46607,73.143479 155.46607,54.78452 160.82182,86.219306 162.30175,100.80567 158.85158,101.11918 150.76758,78.267607 142.6174,69.685892 154.15158,71.098928 " />
          </g>
        </g>
        <g
           id="Group-103"
           transform="translate(3.008,2.610065)">
          <path
             d="m 62.919389,186.70352 23.833888,7.45518 34.598013,-6.31215 3.78256,-13.51234 c 0.35344,-0.56402 35.54855,-56.72092 51.7737,-80.817522 l 0.0376,-0.0555 3.0847,0.487513 -16.29584,-53.024826 0.009,-0.0285 10.66035,-39.2859818 -38.48435,11.6807918 -0.018,-0.0015 -63.992193,-2.974574 -30.940288,8.691217 -0.02256,-0.0045 -39.5958082,-6.565664 12.4440962,42.212555 -0.003,0.021 -6.7574722,53.464331 3.8502402,-0.62251 0.0391,0.0525 47.228608,66.01665 z m 23.818848,7.67119 -0.02256,-0.009 -23.95872,-7.49269 -0.01805,-0.0495 -4.779712,-13.15833 -47.169952,-65.92665 -3.9991362,0.64652 0.018048,-0.1395 6.7725122,-53.579843 -12.5268162,-42.493063 0.16544,0.0285 39.7371842,6.588165 30.928256,-8.685217 h 0.01654 l 63.990679,2.974574 38.81524,-11.7812946 -0.0511,0.1830046 -10.70246,39.440486 16.37555,53.288832 -3.28474,-0.520513 c -16.15747,24.003599 -51.02169,79.623489 -51.72406,80.742519 l -3.80211,13.59634 -0.0647,0.012 z"
             id="Fill-11"
             fill="#231f20" />
          <path
             d="m 38.572637,107.9091 7.536544,6.71717 5.991936,3.16058 c -3.0832,-1.89005 -4.017184,-5.98665 -2.058976,-9.02123 1.589728,-2.46156 4.516512,-3.43509 6.9936,-2.78557 l -0.487296,3.61359 15.587456,5.03263 19.52192,-6.71717 1.801792,-5.51564 c 0,0 15.468637,-2.967074 10.642307,12.48031 l 11.00928,-9.74124 6.5063,-6.223657 2.06048,16.702917 -15.07459,18.67097 -16.429697,7.20918 -30.14768,0.49351 -19.520416,-7.70269 -5.991936,-14.91038 z"
             id="Fill-13"
             fill="#fefefe" />
          <polygon
             id="Fill-15"
             fill="#fefefe"
             points="52.637443,82.685367 64.146051,80.639316 65.068003,78.963774 50.703299,71.093077 39.675971,59.277282 44.527875,56.904223 31.182883,52.896122 34.547331,43.295882 17.341571,61.020325 16.514371,77.634741 35.373027,63.919898 47.890819,74.41566 57.872867,79.21578 49.379779,81.642841 28.535843,90.556064 60.092771,82.79187 " />
          <path
             d="m 71.24057,121.17363 0.209056,1.04553 z"
             id="Fill-17"
             fill="#fefefe" />
          <path
             d="m 124.7016,164.44176 -0.88585,1.89305 z"
             id="Fill-19"
             fill="#fefefe" />
          <polygon
             id="Fill-21"
             fill="#fefefe"
             points="126.51859,81.801995 107.85395,78.164404 98.270458,77.447386 108.60444,82.955524 90.28873,75.116328 109.80915,76.344859 " />
          <polygon
             id="Fill-23"
             fill="#fefefe"
             points="90.689245,74.732318 108.20182,67.355134 117.92217,55.291832 128.55245,61.849996 127.72224,53.370284 116.85584,48.315158 104.50649,64.665567 105.30963,60.363459 100.07421,66.905123 " />
          <polygon
             id="Fill-25"
             fill="#fefefe"
             points="110.61213,39.002475 120.01063,41.306533 118.50964,33.98035 111.41527,28.475212 123.22468,30.78077 140.33418,47.147679 142.34202,53.755344 133.02474,49.451736 135.48979,53.677342 135.27472,58.876472 117.46887,46.736668 109.78343,53.882847 113.90589,42.844071 " />
          <path
             d="m 117.73974,52.702168 c 2.91475,2.788569 7.06579,5.484137 9.92941,8.620715 -2.81248,-1.045526 -9.30375,-5.263631 -9.30375,-5.263631 l -1.50249,2.547063 c 0,0 9.1398,8.542714 9.19094,9.040726 -3.01853,3.087077 -6.34989,5.676142 -9.26464,8.81272 3.17494,1.344034 8.8736,4.969625 8.8736,4.969625 l -17.12906,-4.705618 c 0,0 -18.189372,-1.459536 -18.189372,-1.657541 l 16.411652,-9.615241 z"
             id="Fill-27"
             fill="#231f20" />
          <polygon
             id="Fill-29"
             fill="#231f20"
             points="107.67918,57.140178 115.9572,44.094352 128.65697,54.351609 116.42494,48.775969 " />
          <polygon
             id="Fill-31"
             fill="#231f20"
             points="69.725891,78.267457 74.437923,79.045976 69.237091,73.758344 66.790083,79.20348 " />
          <polygon
             id="Fill-33"
             fill="#231f20"
             points="141.21522,92.072452 143.69682,103.48324 142.45301,102.44821 135.48197,114.74702 137.65375,100.96767 136.40994,90.591915 131.9205,84.81227 142.76284,92.072452 " />
          <polygon
             id="Fill-35"
             fill="#231f20"
             points="149.03918,99.531238 143.92408,115.68214 153.68804,101.01178 155.23566,101.45579 152.75857,77.59619 155.23566,78.78572 152.60366,73.894097 139.74446,68.41146 145.94244,74.042601 " />
          <polygon
             id="Fill-37"
             fill="#231f20"
             points="160.99418,99.507988 121.46304,164.0696 119.83421,167.8662 172.32832,93.285832 161.89808,52.925823 144.08019,39.441986 155.08045,55.444386 " />
          <polygon
             id="Fill-39"
             fill="#231f20"
             points="107.7037,17.871747 123.93186,21.881347 142.2957,35.806195 126.32472,16.764719 " />
          <polygon
             id="Fill-41"
             fill="#231f20"
             points="103.51115,26.0144 84.762282,20.774769 74.526058,21.758794 85.661674,16.886672 " />
          <polygon
             id="Fill-43"
             fill="#231f20"
             points="107.83229,37.650791 74.398368,29.951099 84.762432,26.261007 " />
          <polygon
             id="Fill-45"
             fill="#231f20"
             points="89.984019,44.932873 100.55413,52.632566 82.447475,71.18203 90.883411,53.61659 77.354931,44.565364 88.955283,42.151804 74.912435,36.912173 101.84005,42.151804 " />
          <path
             d="m 110.50309,64.695117 c 1.00167,0.468012 1.692,1.450537 1.692,2.589065 0,1.58854 -1.34758,2.878572 -3.0095,2.878572 -1.23779,0 -2.29962,-0.715518 -2.76285,-1.737043 l 1.85443,-1.312533 z"
             id="Fill-47"
             fill="#fefefe" />
          <polygon
             id="Fill-49"
             fill="#231f20"
             points="162.65971,134.25126 139.05443,123.26798 121.91484,119.16988 124.5694,116.65732 140.04857,121.07343 " />
          <polygon
             id="Fill-51"
             fill="#231f20"
             points="177.31859,116.26401 144.94048,111.28988 123.87696,111.26438 125.53587,107.48279 146.29709,107.7993 " />
          <path
             d="m 117.60302,126.41491 c 4.85191,2.14505 7.54708,3.46359 12.217,5.97465 9.29472,4.99962 14.35718,8.24721 22.77206,14.61036 -10.17005,-8.77971 -16.23267,-13.40733 -27.38784,-20.90302 -2.04394,-1.37253 -3.20502,-2.13605 -5.27904,-3.46358 z"
             id="Fill-53"
             fill="#231f20" />
          <polygon
             id="Fill-55"
             fill="#231f20"
             points="150.45159,29.539939 165.73824,10.088952 161.72106,31.374484 171.07293,4.7683192 139.76416,17.844146 " />
          <path
             d="m 122.27956,67.769894 c -2.23795,2.539564 -7.93661,7.645691 -7.93661,7.645691 l -19.329404,-1.101027 7.753124,-3.643591 c 0.23462,-0.0945 0.47376,-0.201005 0.7159,-0.319508 0.43917,0.745518 1.03174,1.395035 1.74013,1.912548 l 3.20653,-4.128104 0.18649,5.382135 c 0.188,0.0165 0.37901,0.024 0.57002,0.024 3.61261,0 6.5439,-2.803571 6.5439,-6.258157 0,-1.980049 -0.96105,-3.742594 -2.45904,-4.890122 0.57754,-0.598515 0.91594,-0.970524 0.91594,-0.970524 2.65456,1.842046 8.09302,6.346658 8.09302,6.346658"
             id="Fill-57"
             fill="#e0701d" />
          <path
             d="m 62.253267,174.17445 0.321856,0.13951 -0.109792,-0.087 1.320512,-2.40006 -18.571392,-27.02318 -0.821184,4.1101 -32.129952,-44.0231 -2.7598398,-0.099 L 17.676211,52.240906 26.064019,41.091127 11.712851,23.363684 15.730035,40.906623 5.3223552,15.936998 l 36.5035838,5.764644 28.894848,-8.42721 -3.123808,8.712218 -6.975552,0.0015 c 0,0 -8.69312,4.978624 -12.908832,7.866196 2.132672,-0.648016 19.779104,-6.174154 19.779104,-6.174154 -0.57152,2.142054 -0.936992,4.432611 -1.664928,6.573164 l -6.349888,0.0015 -16.13792,13.341334 22.904416,-11.949299 c -0.62416,2.241056 -1.768704,6.723168 -1.768704,6.723168 l -22.85328,13.144829 h 12.75392 l -7.028192,9.409735 15.252064,9.112728 -8.849536,-10.755269 5.621952,-8.266707 -6.246112,-1.443036 11.868064,-9.658741 -1.24832,17.22643 4.477408,15.535889 -3.197504,6.312158 -14.90464,-7.068177 -12.871232,-13.833346 4.215712,-0.597015 -12.335808,-3.138078 3.591552,-8.812721 -0.10528,-0.148503 C 27.826707,50.916373 19.237363,62.01965 19.237363,62.01965 l -1.093408,13.842347 4.403712,-10.042752 5.071488,-4.645616 -1.873984,7.668192 9.36992,-7.917198 c 4.208192,4.849621 12.200448,11.850296 12.200448,11.850296 l 15.088128,7.20618 -11.932736,2.454062 c 0,0 -18.11568,6.622665 -19.364,7.419185 9.213504,-3.436586 28.994112,-7.071176 28.994112,-7.071176 l 5.101568,5.776644 -7.959168,17.368936 c 0.103776,0.85652 0.254176,2.44806 0.254176,2.44806 0,0 8.381792,1.89155 12.961472,2.49006 6.14384,-1.99205 18.637568,-5.47814 18.637568,-5.47814 l 2.944832,0.73502 1.416768,-3.74859 1.306976,2.30106 c 0,0 -0.103776,7.36818 -0.344416,10.47326 -3.540416,3.43659 -17.132064,14.85487 -17.132064,14.85487 l 9.342848,6.93017 15.465627,-1.09652 8.23741,-6.19966 c 0,0 5.93328,-4.78062 7.07933,-7.61869 -2.2184,2.00105 -12.38845,6.74117 -12.38845,6.74117 l -14.479005,1.81954 14.479005,-3.92259 12.42906,-8.24571 c 0,0 1.7296,-1.42054 1.83337,-5.60414 -1.51302,1.22403 -11.54169,7.9577 -11.54169,7.9577 l -10.902497,2.60706 11.762787,-5.48863 10.6814,-9.60774 c 0,0 0.31133,-5.07763 0.15492,-7.31869 -1.43181,2.44507 -6.22506,7.19868 -6.22506,7.19868 l -10.10387,7.8452 9.80006,-10.87677 7.15303,-12.382812 -3.27722,-4.680116 11.03485,8.266706 3.59155,8.961222 -2.13418,-1.59304 1.24832,5.62664 -0.98812,7.06968 -2.75984,-2.04155 -1.45587,7.76869 -4.9978,5.47514 -3.384,6.72317 c 0,0 4.52855,-4.33211 6.71536,-6.22516 0.57303,0.15001 -7.23424,11.45279 -7.23424,11.45279 l -0.99113,4.78062 11.76579,-10.25876 -2.91626,5.72714 18.01191,-16.97742 -25.99664,39.9325 -0.79261,3.60009 3.33737,3.9496 -5.11961,8.68821 -23.078881,-1.13702 -3.191488,0.3465 -11.40032,2.50507 13.387104,-0.92403 -11.850016,3.8341 8.25696,5.28763 -18.809024,-4.1626 z m -5.423424,-68.2142 2.001824,-8.865223 -15.336288,-2.460061 c -3.18848,3.333083 -4.00816,7.168684 -3.27872,11.352284 0.748992,2.65357 3.716384,6.53566 6.175424,8.52771 l 6.094208,3.38859 L 46.381555,116 l -6.894336,-5.23363 0.369984,2.83057 10.185088,9.21023 c 0,0 5.307616,1.85255 8.742752,3.69609 0.10528,0.19951 -8.945792,-1.94555 -8.945792,-1.94555 l -9.622592,-7.11917 c 0.154912,1.39353 0.573024,2.93857 1.144544,4.3321 1.980768,2.16906 10.306912,7.6502 10.306912,7.6502 l 12.200448,2.91607 -11.792864,-0.58202 -7.88096,-4.96962 0.290272,0.71252 c 2.0304,2.63856 7.39216,6.47266 7.39216,6.47266 l 14.200768,4.28861 6.53488,-8.25471 c 0,0 -10.950624,-7.58719 -14.749728,-10.27526 -0.573024,-0.1995 -1.40624,-1.44303 -1.40624,-1.44303 l -1.627328,-9.09623 c 0,0 1.355104,-2.15555 2.00032,-3.22958 z"
             id="Fill-59"
             fill="#231f20" />
          <path
             d="m 35.875965,120.21706 c -2.237952,-2.49007 -5.498624,-8.60272 -5.498624,-8.60272 l 0.627168,5.23063 4.531552,11.69279 -15.608512,-24.91262 2.956864,-1.07853 0.726432,-10.650263 c 0,0 11.380768,26.777173 12.26512,28.320713"
             id="Fill-61"
             fill="#fefefe" />
          <polygon
             id="Fill-63"
             fill="#e0701d"
             points="36.106227,67.436436 24.936019,70.352509 34.492435,64.863872 " />
          <polygon
             id="Fill-65"
             fill="#e0701d"
             points="37.719117,83.095027 34.262925,85.079577 39.793133,82.80102 29.753933,77.238881 " />
          <path
             d="m 40.737494,74.0045 c 0,-0.745518 0.321856,-1.420535 0.840736,-1.902047 l 4.531552,2.82757 c -0.392544,1.008025 -1.407744,1.728044 -2.600416,1.728044 -1.531072,0 -2.771872,-1.18803 -2.771872,-2.653567"
             id="Fill-67"
             fill="#fefefe" />
          <path
             d="m 48.986032,76.885922 c 0.281248,-0.432011 0.212064,-0.321008 0.327872,-0.633016 l 5.686624,2.39856 c -4.322496,1.19553 -9.4752,2.289057 -14.16016,3.534089 -2.914752,-2.239556 -5.882144,-4.830121 -8.849536,-6.77117 l 5.257984,-7.069676 1.68448,1.590039 c -1.03776,1.066527 -1.672448,2.497563 -1.672448,4.069602 0,1.057526 0.287264,2.049051 0.7896,2.911573 l 4.411232,-2.772069 -1.935648,5.113627 c 0.88736,0.463512 1.904064,0.724518 2.983936,0.724518 2.358272,0 4.412736,-1.251031 5.476064,-3.096077"
             id="Fill-69"
             fill="#e0701d" />
          <polygon
             id="Fill-71"
             fill="#e0701d"
             points="73.511309,128.0585 71.374125,116.1212 70.769517,119.18728 " />
          <polygon
             id="Fill-73"
             fill="#e0701d"
             points="87.377136,111.93625 78.413296,120.10095 78.303504,124.04155 77.562032,123.36353 77.667312,119.69444 " />
          <polygon
             id="Fill-75"
             fill="#e0701d"
             points="85.460589,116.23146 87.137549,113.33488 87.057837,117.44499 79.837133,123.21413 79.909325,120.59356 " />
          <polygon
             id="Fill-77"
             fill="#fefefe"
             points="91.215645,108.26566 87.272157,108.57166 73.724125,112.24076 88.657341,107.24563 " />
          <polygon
             id="Fill-79"
             fill="#e0701d"
             points="65.921674,120.216 65.50657,119.69399 60.391466,115.8149 66.684202,118.97997 67.855818,122.65057 67.759562,122.52456 62.623402,119.00697 65.650954,120.31801 " />
          <path
             d="m 80.578906,166.76937 6.673248,-0.95853 11.702624,0.41102 c 0,0 -1.033248,-5.00713 -0.959552,-8.24121 0.07971,-3.48159 1.528064,-8.79772 1.528064,-8.79772 -2.329696,-0.21001 -4.495456,-0.69302 -6.764992,0.67202 -2.680128,1.60804 -3.934464,3.90459 -3.836704,7.02167 -0.893376,-1.33353 -1.159584,-2.39406 -1.001664,-3.9916 0.124832,-1.26153 0.4136,-2.01305 1.168608,-3.03007 -2.953856,0.09 -5.080512,0.70501 -7.007136,2.87107 -3.854752,4.32761 -4.665408,9.52824 -1.502496,14.04335"
             id="Fill-81"
             fill="#e0701d" />
          <path
             d="m 68.655494,171.60504 0.430144,0.75452 -0.715904,0.54751 c 0,0 1.467904,2.04755 2.437984,2.33406 2.795936,0.82352 3.220064,0.42901 6.7304,0.46951 l -6.426592,1.46704 -4.66992,-3.7951 z"
             id="Fill-83"
             fill="#fefefe" />
          <path
             d="m 106.55509,175.52509 c 2.15373,-0.075 3.60659,-0.36901 5.2655,-1.66654 1.50551,-1.17753 2.23044,-1.74155 3.14938,-3.24759 l -2.54777,5.14963 z"
             id="Fill-85"
             fill="#fefefe" />
          <polygon
             id="Fill-87"
             fill="#fefefe"
             points="106.05411,175.55554 89.651485,174.39451 78.741469,175.69054 90.060573,173.38198 " />
          <path
             d="m 98.691427,138.25996 c 0.550464,2.29805 0.756512,3.71409 1.455873,6.03015 1.87248,6.19965 3.50582,9.63324 7.13798,15.00187 -0.18499,-5.18263 -0.14589,-8.1197 0.18349,-13.29483 0.29328,-4.63212 0.0226,-7.00818 1.27991,-11.8308 l -5.87162,3.7321 z"
             id="Fill-89"
             fill="#fefefe" />
          <polygon
             id="Fill-91"
             fill="#fefefe"
             points="92.344397,139.33563 93.791245,144.98777 89.298797,142.71222 77.114893,143.73524 71.619277,143.39774 69.470061,146.34381 68.806797,140.43966 76.908845,140.77117 " />
          <path
             d="m 56.835709,137.77649 c 0.230112,3.9346 0.630176,6.17566 1.77472,9.94825 1.854432,6.11416 3.648704,9.50874 7.659872,14.48886 -1.094912,-5.34013 -1.442336,-8.43921 -1.55664,-13.88884 -0.06768,-3.17108 -0.01053,-4.96963 0.257184,-8.13171 z"
             id="Fill-93"
             fill="#fefefe" />
          <path
             d="m 102.0079,171.74124 -13.141954,-1.10552 -8.335168,0.99152 c -0.174464,0.84902 -0.988128,1.65004 -1.92512,2.12705 -3.465216,1.76105 -6.477728,0.45601 -7.703488,-2.54106 -2.003328,-7.10868 -2.1808,-8.31771 -0.357952,-16.60242 3.137344,8.16321 4.76016,8.38371 8.447968,13.82885 l 8.750272,-1.06953 13.033662,0.52802 c -1.44083,-6.54617 -1.833374,-9.35274 -0.0707,-16.60692 3.8352,9.58824 6.07015,9.75775 10.12042,17.88045 0.44518,0.91202 -1.59123,3.27908 -3.19149,3.67959 -3.2712,0.82052 -4.80829,0.102 -5.63849,-1.14753 z"
             id="Fill-95"
             fill="#fefefe" />
          <path
             d="m 47.113402,133.02453 c -4.403712,2.51256 -6.867264,3.96759 -11.194272,6.61066 -5.442976,3.32408 -8.478048,5.25763 -13.790176,8.78572 6.659712,-6.45916 10.759616,-9.81625 18.405952,-15.07838 2.028896,-1.39653 3.191488,-2.16005 5.280544,-3.46508 z"
             id="Fill-97"
             fill="#231f20" />
          <polygon
             id="Fill-99"
             fill="#231f20"
             points="12.946883,134.25021 24.390819,129.56109 41.530403,125.46299 38.875843,122.95042 23.396675,127.36653 " />
          <polygon
             id="Fill-101"
             fill="#231f20"
             points="1.547616,119.805 15.82208,117.26543 37.57744,118.85247 35.918528,115.07088 15.158816,115.38889 " />
        </g>
      </g>
    </g>
  </g>
</svg>
