<svg xmlns="http://www.w3.org/2000/svg" viewBox="0 0 50 50" enable-background="new 0 0 50 50">
  <path fill="red" fill-rule="evenodd" d="M 38 10.8125 L 37.09375 14.59375 L 35.1875 11.1875 L 35.28125 14.28125 C 33.111247 12.312174 30.24797 11.09375 27.09375 11.09375 C 21.987738 11.09375 17.744575 14.37921 15.96875 18.875 C 15.116964 18.381339 14.172964 18 13.09375 18 C 9.8505401 18 7.1875 20.66304 7.1875 23.90625 C 7.1875 24.127062 7.283794 24.363497 7.3125 24.59375 C 3.3149967 24.865063 0.09375 28.123298 0.09375 32.1875 C 0.09375 32.982738 0.20587722 33.711382 0.4375 34.40625 L 0.8125 34.28125 C 0.762262 34.511861 0.68737447 34.812374 0.6875 34.8125 A 1.0001 1.0001 0 0 0 1.5625 35.09375 C 1.636382 35.09125 1.7710559 35.09645 1.9375 35.09375 C 2.2703882 35.08835 2.7698967 35.06727 3.40625 35.0625 C 4.6789566 35.053 6.49212 35.03828 8.6875 35.03125 C 13.07826 35.01719 18.944105 35.00625 24.8125 35 C 36.549289 34.9875 48.3125 35 48.3125 35 A 1.0001 1.0001 0 0 0 49.21875 34.40625 C 49.655037 33.424604 50 32.29375 50 31.09375 C 50 28.310895 48.500307 25.880664 46.28125 24.53125 L 48.59375 24.59375 L 45.1875 22.6875 L 49 21.8125 L 45.1875 20.90625 L 48.59375 19 L 44.6875 19 L 47.5 16.3125 L 43.8125 17.40625 L 45.8125 14.09375 L 42.5 16.09375 L 43.59375 12.40625 L 40.90625 15.1875 L 41 11.3125 L 39 14.59375 L 38 10.8125 z M 27.09375 13.09375 C 32.756116 13.09375 37.3125 17.650134 37.3125 23.3125 C 37.3125 23.642352 37.3046 23.932198 37.28125 24.21875 L 27.5 22.5 L 36.09375 25.6875 L 21 30.59375 L 37.875 27 L 37.90625 27 A 1.0001 1.0001 0 0 0 38.40625 26.90625 L 38.4375 26.90625 L 43.90625 31.3125 L 39.96875 25.9375 C 40.660297 25.617064 41.443544 25.40625 42.3125 25.40625 C 45.471959 25.40625 48 27.934291 48 31.09375 C 48 31.703162 47.761175 32.361598 47.53125 33 C 46.788517 33.000013 36.160478 32.98792 24.8125 33 C 18.943395 33.0063 13.081115 33.01718 8.6875 33.03125 C 6.4906925 33.03825 4.6534653 33.05291 3.375 33.0625 C 2.8853073 33.0662 2.5693286 33.08963 2.25 33.09375 C 2.1963827 32.804066 2.09375 32.532203 2.09375 32.1875 C 2.09375 29.028041 4.6530405 26.5 7.8125 26.5 L 8.5 26.5 A 1.0001 1.0001 0 0 0 9.4375 25.125 C 9.297264 24.77441 9.1875 24.272917 9.1875 23.90625 C 9.1875 21.74946 10.93696 20 13.09375 20 C 14.13734 20 14.997764 20.393845 15.75 21.0625 A 1.0001 1.0001 0 0 0 17.375 20.5625 C 18.557962 16.285637 22.451266 13.09375 27.09375 13.09375 z"/>
</svg>