<svg xmlns="http://www.w3.org/2000/svg" id="logosandtypes_com" data-name="logosandtypes com" viewBox="0 0 150 150">
  <defs>
    <style>
      .cls-1 {
        fill: #2bb6ea;
        fill-rule: evenodd;
      }

      .cls-2 {
        fill: none;
      }
    </style>
  </defs>
  <path class="cls-2" d="M0,0H150V150H0V0Z"/>
  <path class="cls-1" d="M26.05,19.99c-7,11.14-7,99.49,0,110.63,5.41,9.17,14.24,11.31,23.84,8.54,3.53-1.02,12.97-6.14,24.18-12.75l-23.37-14.95c-10.17-7.08-.64-21.99,10.06-15.73,0,0,31.06,19.89,31.06,19.89l19.17-12.4-60.29-38.61c-4.34-2.78-5.61-8.55-2.84-12.9,2.78-4.34,8.55-5.61,12.9-2.84l66.14,42.38c13.89-13.81,10.16-26.43-11.19-40.85C94.91,36.36,57.75,13.72,49.88,11.45c-9.59-2.77-18.43-.63-23.83,8.54h0Z"/>
</svg>