<svg xmlns="http://www.w3.org/2000/svg" id="logosandtypes_com" viewBox="0 0 150 150"><path d="M0 0h150v150H0V0z" fill="none"/><path d="M142 40.1c0-14.5-7.2-21.9-19.8-22.3-18.9-.6-31.7 10.1-38.4 32 3.5-1.5 6.8-2.2 10.1-2.2 6.9 0 10 3.9 9.2 11.7-.4 4.7-3.5 11.6-9.2 20.6-5.7 9-10 13.5-12.9 13.5-3.7 0-7-6.9-10.1-20.9-1-4.1-2.9-14.5-5.5-31.3-2.5-15.5-9-22.8-19.6-21.8-4.6.6-11.3 4.6-20.3 12.4C19 37.7 12.3 43.7 5.6 49.6l6.4 8.3c6.1-4.3 9.7-6.4 10.7-6.4 4.7 0 9.1 7.4 13.1 22 3.7 13.5 7.3 26.9 11 40.4 5.5 14.7 12.2 22 20.2 22 12.8 0 28.5-12.1 47.1-36.2 13-16.8 21.5-30.8 25.4-42.6 1.4-4 2.5-12.1 2.5-17z" fill="#00adef"/></svg>